<svg xmlns="http://www.w3.org/2000/svg" xmlns:xlink="http://www.w3.org/1999/xlink" width="210" zoomAndPan="magnify" viewBox="0 0 157.5 67.499998" height="90" preserveAspectRatio="xMidYMid meet" version="1.0"><defs><g/><clipPath id="fc015e1b64"><path d="M 0.332031 0 L 156.671875 0 L 156.671875 67.003906 L 0.332031 67.003906 Z M 0.332031 0 " clip-rule="nonzero"/></clipPath><clipPath id="49e06266ce"><path d="M 10 6 L 30 6 L 30 25 L 10 25 Z M 10 6 " clip-rule="nonzero"/></clipPath><clipPath id="66755a717e"><path d="M 7.035156 15.644531 L 22.710938 -0.03125 L 35.65625 12.914062 L 19.980469 28.589844 Z M 7.035156 15.644531 " clip-rule="nonzero"/></clipPath><clipPath id="07cdcdc248"><path d="M 29.152344 6.46875 L 15.40625 7.273438 L 19.042969 10.910156 L 10.671875 19.28125 L 16.34375 24.953125 L 24.714844 16.582031 L 28.351562 20.21875 Z M 29.152344 6.46875 " clip-rule="nonzero"/></clipPath></defs><g clip-path="url(#fc015e1b64)"><path fill="#ffffff" d="M 0.332031 0 L 156.671875 0 L 156.671875 67.003906 L 0.332031 67.003906 Z M 0.332031 0 " fill-opacity="1" fill-rule="nonzero"/><path fill="#fefeff" d="M 0.332031 0 L 156.671875 0 L 156.671875 67.003906 L 0.332031 67.003906 Z M 0.332031 0 " fill-opacity="1" fill-rule="nonzero"/></g><g clip-path="url(#49e06266ce)"><g clip-path="url(#66755a717e)"><g clip-path="url(#07cdcdc248)"><path fill="#00e577" d="M 7.035156 15.644531 L 22.660156 0.0195312 L 35.605469 12.964844 L 19.980469 28.589844 Z M 7.035156 15.644531 " fill-opacity="1" fill-rule="nonzero"/></g></g></g><g fill="#000000" fill-opacity="1"><g transform="translate(17.380064, 50.162167)"><g><path d="M 22.0625 0 L 16.4375 -8.140625 L 10.21875 -8.140625 L 10.21875 0 L 3.46875 0 L 3.46875 -29.203125 L 16.109375 -29.203125 C 18.691406 -29.203125 20.9375 -28.769531 22.84375 -27.90625 C 24.75 -27.039062 26.210938 -25.816406 27.234375 -24.234375 C 28.265625 -22.648438 28.78125 -20.773438 28.78125 -18.609375 C 28.78125 -16.441406 28.257812 -14.570312 27.21875 -13 C 26.175781 -11.425781 24.695312 -10.222656 22.78125 -9.390625 L 29.328125 0 Z M 21.9375 -18.609375 C 21.9375 -20.242188 21.40625 -21.5 20.34375 -22.375 C 19.289062 -23.257812 17.753906 -23.703125 15.734375 -23.703125 L 10.21875 -23.703125 L 10.21875 -13.515625 L 15.734375 -13.515625 C 17.753906 -13.515625 19.289062 -13.957031 20.34375 -14.84375 C 21.40625 -15.738281 21.9375 -16.992188 21.9375 -18.609375 Z M 21.9375 -18.609375 "/></g></g></g><g fill="#000000" fill-opacity="1"><g transform="translate(46.294336, 50.162167)"><g><path d="M 12.0625 -22.78125 C 15.53125 -22.78125 18.195312 -21.953125 20.0625 -20.296875 C 21.925781 -18.640625 22.859375 -16.144531 22.859375 -12.8125 L 22.859375 0 L 16.765625 0 L 16.765625 -2.796875 C 15.546875 -0.710938 13.265625 0.328125 9.921875 0.328125 C 8.203125 0.328125 6.707031 0.0351562 5.4375 -0.546875 C 4.175781 -1.128906 3.210938 -1.929688 2.546875 -2.953125 C 1.878906 -3.984375 1.546875 -5.15625 1.546875 -6.46875 C 1.546875 -8.550781 2.328125 -10.191406 3.890625 -11.390625 C 5.460938 -12.585938 7.894531 -13.1875 11.1875 -13.1875 L 16.359375 -13.1875 C 16.359375 -14.601562 15.925781 -15.691406 15.0625 -16.453125 C 14.195312 -17.222656 12.90625 -17.609375 11.1875 -17.609375 C 9.988281 -17.609375 8.8125 -17.421875 7.65625 -17.046875 C 6.5 -16.671875 5.519531 -16.160156 4.71875 -15.515625 L 2.375 -20.0625 C 3.601562 -20.925781 5.070312 -21.59375 6.78125 -22.0625 C 8.488281 -22.539062 10.25 -22.78125 12.0625 -22.78125 Z M 11.5625 -4.046875 C 12.664062 -4.046875 13.648438 -4.300781 14.515625 -4.8125 C 15.378906 -5.332031 15.992188 -6.09375 16.359375 -7.09375 L 16.359375 -9.390625 L 11.890625 -9.390625 C 9.222656 -9.390625 7.890625 -8.515625 7.890625 -6.765625 C 7.890625 -5.921875 8.210938 -5.253906 8.859375 -4.765625 C 9.515625 -4.285156 10.414062 -4.046875 11.5625 -4.046875 Z M 11.5625 -4.046875 "/></g></g></g><g fill="#000000" fill-opacity="1"><g transform="translate(70.285239, 50.162167)"><g><path d="M 25.28125 -22.4375 L 15.140625 1.375 C 14.109375 3.957031 12.832031 5.773438 11.3125 6.828125 C 9.800781 7.890625 7.976562 8.421875 5.84375 8.421875 C 4.675781 8.421875 3.519531 8.238281 2.375 7.875 C 1.238281 7.519531 0.304688 7.023438 -0.421875 6.390625 L 1.953125 1.75 C 2.460938 2.195312 3.039062 2.546875 3.6875 2.796875 C 4.34375 3.046875 4.988281 3.171875 5.625 3.171875 C 6.519531 3.171875 7.242188 2.953125 7.796875 2.515625 C 8.359375 2.085938 8.859375 1.375 9.296875 0.375 L 9.390625 0.171875 L -0.328125 -22.4375 L 6.390625 -22.4375 L 12.6875 -7.21875 L 19.03125 -22.4375 Z M 25.28125 -22.4375 "/></g></g></g><g fill="#000000" fill-opacity="1"><g transform="translate(93.4834, 50.162167)"><g><path d="M 21.484375 -5 L 21.484375 0 L 1.453125 0 L 1.453125 -3.921875 L 12.890625 -17.4375 L 1.75 -17.4375 L 1.75 -22.4375 L 21.109375 -22.4375 L 21.109375 -18.515625 L 9.671875 -5 Z M 21.484375 -5 "/></g></g></g><g fill="#000000" fill-opacity="1"><g transform="translate(114.38677, 50.162167)"><g><path d="M 24.984375 -11.140625 C 24.984375 -11.054688 24.941406 -10.472656 24.859375 -9.390625 L 7.890625 -9.390625 C 8.191406 -7.992188 8.910156 -6.890625 10.046875 -6.078125 C 11.191406 -5.273438 12.613281 -4.875 14.3125 -4.875 C 15.476562 -4.875 16.507812 -5.046875 17.40625 -5.390625 C 18.3125 -5.742188 19.15625 -6.296875 19.9375 -7.046875 L 23.40625 -3.296875 C 21.289062 -0.878906 18.203125 0.328125 14.140625 0.328125 C 11.609375 0.328125 9.367188 -0.160156 7.421875 -1.140625 C 5.472656 -2.128906 3.96875 -3.5 2.90625 -5.25 C 1.851562 -7.007812 1.328125 -9 1.328125 -11.21875 C 1.328125 -13.414062 1.847656 -15.394531 2.890625 -17.15625 C 3.941406 -18.925781 5.375 -20.304688 7.1875 -21.296875 C 9.007812 -22.285156 11.050781 -22.78125 13.3125 -22.78125 C 15.507812 -22.78125 17.492188 -22.304688 19.265625 -21.359375 C 21.046875 -20.410156 22.441406 -19.050781 23.453125 -17.28125 C 24.472656 -15.519531 24.984375 -13.472656 24.984375 -11.140625 Z M 13.34375 -17.859375 C 11.875 -17.859375 10.640625 -17.441406 9.640625 -16.609375 C 8.640625 -15.773438 8.023438 -14.632812 7.796875 -13.1875 L 18.859375 -13.1875 C 18.628906 -14.601562 18.015625 -15.734375 17.015625 -16.578125 C 16.015625 -17.429688 14.789062 -17.859375 13.34375 -17.859375 Z M 13.34375 -17.859375 "/></g></g></g></svg>