<svg xmlns="http://www.w3.org/2000/svg" xmlns:xlink="http://www.w3.org/1999/xlink" width="150" zoomAndPan="magnify" viewBox="0 0 112.5 112.499997" height="150" preserveAspectRatio="xMidYMid meet" version="1.0"><defs><g/><clipPath id="e2ca74b98c"><path d="M 0 0 L 112.003906 0 L 112.003906 112.003906 L 0 112.003906 Z M 0 0 " clip-rule="nonzero"/></clipPath><clipPath id="11c27bd376"><path d="M 14 6 L 47 6 L 47 40 L 14 40 Z M 14 6 " clip-rule="nonzero"/></clipPath><clipPath id="92013fa41b"><path d="M 7.722656 22.953125 L 35.023438 -4.351562 L 57.570312 18.195312 L 30.269531 45.496094 Z M 7.722656 22.953125 " clip-rule="nonzero"/></clipPath><clipPath id="c7e980fbea"><path d="M 46.246094 6.972656 L 22.304688 8.371094 L 28.636719 14.707031 L 14.058594 29.285156 L 23.933594 39.164062 L 38.515625 24.582031 L 44.847656 30.917969 Z M 46.246094 6.972656 " clip-rule="nonzero"/></clipPath></defs><g clip-path="url(#e2ca74b98c)"><path fill="#ffffff" d="M 0 0 L 112.003906 0 L 112.003906 112.003906 L 0 112.003906 Z M 0 0 " fill-opacity="1" fill-rule="nonzero"/><path fill="#fefeff" d="M 0 0 L 112.003906 0 L 112.003906 112.003906 L 0 112.003906 Z M 0 0 " fill-opacity="1" fill-rule="nonzero"/></g><g clip-path="url(#11c27bd376)"><g clip-path="url(#92013fa41b)"><g clip-path="url(#c7e980fbea)"><path fill="#00e577" d="M 7.722656 22.953125 L 34.9375 -4.261719 L 57.484375 18.285156 L 30.269531 45.496094 Z M 7.722656 22.953125 " fill-opacity="1" fill-rule="nonzero"/></g></g></g><g fill="#000000" fill-opacity="1"><g transform="translate(24.852148, 96.110131)"><g><path d="M 48.8125 0 L 36.359375 -18 L 22.609375 -18 L 22.609375 0 L 7.65625 0 L 7.65625 -64.59375 L 35.625 -64.59375 C 41.34375 -64.59375 46.304688 -63.640625 50.515625 -61.734375 C 54.734375 -59.828125 57.976562 -57.117188 60.25 -53.609375 C 62.53125 -50.109375 63.671875 -45.957031 63.671875 -41.15625 C 63.671875 -36.351562 62.515625 -32.210938 60.203125 -28.734375 C 57.898438 -25.265625 54.628906 -22.609375 50.390625 -20.765625 L 64.875 0 Z M 48.546875 -41.15625 C 48.546875 -44.789062 47.375 -47.578125 45.03125 -49.515625 C 42.695312 -51.453125 39.285156 -52.421875 34.796875 -52.421875 L 22.609375 -52.421875 L 22.609375 -29.90625 L 34.796875 -29.90625 C 39.285156 -29.90625 42.695312 -30.890625 45.03125 -32.859375 C 47.375 -34.828125 48.546875 -37.59375 48.546875 -41.15625 Z M 48.546875 -41.15625 "/></g></g></g></svg>